<svg width="10" height="10" viewBox="0 0 10 10" fill="none" xmlns="http://www.w3.org/2000/svg">
<path d="M9.67548 0.693546C10.1076 1.12512 10.1076 1.82488 9.67548 2.25646L9.08346 2.85045L7.14955 0.916933L7.74354 0.323735C8.17571 -0.107912 8.87428 -0.107912 9.30645 0.323735L9.67548 0.693546ZM3.4021 4.66596L6.70357 1.36331L8.63748 3.29643L5.33404 6.5979C5.21367 6.72024 5.06566 6.81102 4.90187 6.86627L3.14951 7.45039C2.96204 7.50565 2.79233 7.46223 2.66406 7.31818C2.53777 7.20767 2.49435 7.0202 2.54961 6.85049L3.13373 5.09813C3.18898 4.93434 3.27976 4.78633 3.4021 4.66596ZM3.78889 1.1415C4.13818 1.1415 4.42037 1.44205 4.42037 1.77298C4.42037 2.14003 4.13818 2.40447 3.78889 2.40447H1.89444C1.54575 2.40447 1.26296 2.70442 1.26296 3.03595V8.10556C1.26296 8.45484 1.54575 8.73704 1.89444 8.73704H6.94629C7.29558 8.73704 7.57777 8.45484 7.57777 8.10556V6.19335C7.57777 5.86182 7.85997 5.56187 8.20926 5.56187C8.55854 5.56187 8.84074 5.86182 8.84074 6.19335V8.10556C8.84074 9.15145 7.99218 10 6.94629 10H1.89444C0.848158 10 0 9.15145 0 8.10556V3.03595C0 1.99006 0.848158 1.1415 1.89444 1.1415H3.78889Z" fill="#333333"/>
</svg>
