<svg width="11" height="11" viewBox="0 0 11 11" fill="none" xmlns="http://www.w3.org/2000/svg">
<path fill-rule="evenodd" clip-rule="evenodd" d="M3.91722 8.91722C3.91722 9.55447 4.43382 10.0711 5.07107 10.0711C5.70832 10.0711 6.22491 9.55447 6.22491 8.91722L6.22491 6.22491L8.91722 6.22491C9.55447 6.22491 10.0711 5.70832 10.0711 5.07107C10.0711 4.43382 9.55447 3.91722 8.91722 3.91722H6.22491V1.22491C6.22491 0.587662 5.70832 0.0710678 5.07107 0.0710678C4.43382 0.0710678 3.91722 0.587662 3.91722 1.22491V3.91722H1.22492C0.587664 3.91722 0.0710678 4.43382 0.0710678 5.07107C0.0710678 5.70832 0.587664 6.22491 1.22492 6.22491H3.91722V8.91722Z" fill="#449884"/>
</svg>
