<svg width="13" height="19" viewBox="0 0 13 19" fill="none" xmlns="http://www.w3.org/2000/svg">
<path d="M6.9878 17.4411C7.04679 17.6147 6.95282 17.805 6.78117 17.8633L6.15344 18.0766C5.98179 18.1349 5.79131 18.0412 5.73233 17.8677L1.01118 3.62958C0.89221 3.27945 1.07624 2.90337 1.42444 2.78506C1.77263 2.66675 2.08326 2.83498 2.20223 3.18511L6.9878 17.4411ZM9.5142 0.213865C9.38934 0.25629 9.26804 0.327211 9.16319 0.426273C8.40671 1.1423 7.78974 1.50771 7.23577 1.69594C6.05955 2.0956 5.16236 1.69943 3.80697 2.15975C3.32912 2.32217 2.78493 2.60744 2.15951 3.05941L4.48033 9.97147C5.04115 9.56123 5.58868 9.29609 6.07871 9.12959C7.52309 8.63881 8.74184 8.92396 10.1876 8.43271C10.8136 8.22002 11.4819 7.86155 12.2123 7.23672C12.445 7.04896 12.5228 6.76945 12.4404 6.52683L10.4205 0.58208C10.2889 0.194864 9.88692 0.0872213 9.5142 0.213865Z" fill="#449884"/>
</svg>
