<svg width="11" height="11" viewBox="0 0 11 11" fill="none" xmlns="http://www.w3.org/2000/svg">
<path fill-rule="evenodd" clip-rule="evenodd" d="M1.24264 1.24265C0.656852 1.82844 0.656852 2.77819 1.24264 3.36397L3.36396 5.48529L1.24264 7.60661C0.656855 8.1924 0.656854 9.14214 1.24264 9.72793C1.82843 10.3137 2.77817 10.3137 3.36396 9.72793L5.48528 7.60661L7.6066 9.72793C8.19239 10.3137 9.14213 10.3137 9.72792 9.72793C10.3137 9.14215 10.3137 8.1924 9.72792 7.60661L7.6066 5.48529L9.72792 3.36397C10.3137 2.77818 10.3137 1.82844 9.72792 1.24265C9.14214 0.656864 8.19239 0.656864 7.6066 1.24265L5.48528 3.36397L3.36396 1.24265C2.77817 0.656866 1.82843 0.656865 1.24264 1.24265Z" fill="#333333"/>
</svg>
