<svg width="12" height="13" viewBox="0 0 12 13" fill="none" xmlns="http://www.w3.org/2000/svg">
<path d="M6.8 6.4C6.8 6.8425 6.4425 7.2 6 7.2C5.5575 7.2 5.2 6.8425 5.2 6.4V0.8C5.2 0.35825 5.5575 0 6 0C6.4425 0 6.8 0.35825 6.8 0.8V6.4ZM1.6 6.4C1.6 8.83 3.57 10.8 6 10.8C8.43 10.8 10.4 8.83 10.4 6.4C10.4 5.04 9.7825 3.8225 8.8125 3.015C8.4725 2.7325 8.425 2.22825 8.7075 1.8885C8.99 1.54875 9.495 1.5025 9.835 1.785C11.155 2.885 12 4.545 12 6.3775C12 9.7125 9.3125 12.4 6 12.4C2.6875 12.4 0 9.7125 0 6.3775C0 4.545 0.84375 2.885 2.165 1.785C2.505 1.5025 3.01 1.54875 3.2925 1.8885C3.5525 2.22825 3.5275 2.7325 3.1875 3.015C2.2175 3.8225 1.6 5.04 1.6 6.4Z" fill="#FF4949"/>
</svg>
