<svg width="8" height="8" viewBox="0 0 8 8" fill="none" xmlns="http://www.w3.org/2000/svg">
<path fill-rule="evenodd" clip-rule="evenodd" d="M5.97482 7.6066C6.42542 8.05721 7.156 8.05721 7.6066 7.6066C8.05721 7.156 8.05721 6.42542 7.6066 5.97482L5.70285 4.07107L7.6066 2.16732C8.05721 1.71671 8.05721 0.986138 7.6066 0.535533C7.156 0.0849279 6.42542 0.0849282 5.97482 0.535533L4.07107 2.43928L2.16732 0.535533C1.71671 0.0849282 0.98614 0.0849282 0.535535 0.535533C0.0849294 0.986138 0.0849291 1.71671 0.535534 2.16732L2.43928 4.07107L0.535534 5.97482C0.0849294 6.42542 0.0849284 7.156 0.535534 7.6066C0.986138 8.05721 1.71671 8.05721 2.16732 7.6066L4.07107 5.70285L5.97482 7.6066Z" fill="#FF4949"/>
</svg>
