<svg width="9" height="9" viewBox="0 0 9 9" fill="none" xmlns="http://www.w3.org/2000/svg">
<path d="M8.70067 1.95067L7.01518 0.265179C6.87656 0.126964 6.57121 0 6.35022 0H1.28571C0.575558 0 0 0.575558 0 1.28571V7.71429C0 8.42444 0.575558 9 1.28571 9H7.71429C8.42444 9 9 8.42444 9 7.71429V2.64978C9 2.42879 8.87344 2.12344 8.70067 1.95067ZM4.5 7.71429C3.79004 7.71429 3.21429 7.13853 3.21429 6.42857C3.21429 5.71862 3.79004 5.14286 4.5 5.14286C5.20996 5.14286 5.78571 5.71862 5.78571 6.42857C5.78571 7.13853 5.20915 7.71429 4.5 7.71429ZM6.42857 3.53571C6.42857 3.7125 6.28393 3.85714 6.10714 3.85714H1.60714C1.42955 3.85714 1.28571 3.7125 1.28571 3.53571V1.60714C1.28571 1.43036 1.42955 1.28571 1.60714 1.28571H6.10714C6.28393 1.28571 6.42857 1.43036 6.42857 1.60714V3.53571Z" fill="#333333"/>
</svg>
