<svg width="10" height="10" viewBox="0 0 10 10" fill="none" xmlns="http://www.w3.org/2000/svg">
<path d="M9.77042 8.66508L7.43278 6.32744C7.96436 5.53827 8.22664 4.55224 8.08622 3.50157C7.8468 1.71446 6.38211 0.260122 4.59324 0.033642C1.93356 -0.302904 -0.30292 1.93358 0.0336457 4.59325C0.260184 6.38291 1.71472 7.84876 3.50203 8.08702C4.55269 8.22742 5.53892 7.96524 6.3279 7.43358L8.66554 9.77122C8.97058 10.0763 9.46526 10.0763 9.7703 9.77122C10.0751 9.46578 10.0751 8.96974 9.77042 8.66508ZM1.54473 4.06206C1.54473 2.68369 2.6661 1.56233 4.04447 1.56233C5.42284 1.56233 6.5442 2.68369 6.5442 4.06206C6.5442 5.44043 5.42284 6.56179 4.04447 6.56179C2.6661 6.56179 1.54473 5.44082 1.54473 4.06206Z" fill="#888888"/>
</svg>
