<svg width="195" height="45" viewBox="0 0 195 45" fill="none" xmlns="http://www.w3.org/2000/svg">
<path d="M20.4 23.9C20.7667 24.5 20.95 25.7 20.95 27.5C20.95 29.2667 20.5833 30.7667 19.85 32C19.1833 32.9667 17.7667 34.3167 15.6 36.05C13.4333 37.75 11.8333 38.6 10.8 38.6C8.96667 38.6 6.86667 37.65 4.5 35.75C2.13333 33.8167 0.633333 31.7 7.07805e-08 29.4L5.55 25.6C6.08333 27.1667 6.93333 28.6 8.1 29.9C9.26667 31.2 10.0833 31.85 10.55 31.85C11.05 31.85 11.5667 31.7 12.1 31.4C12.6667 31.0667 13.1 30.7333 13.4 30.4C13.8333 29.8667 14.05 29.0333 14.05 27.9C14.05 26.7667 13.7833 26.0667 13.25 25.8C12.5833 25.2333 11.2833 24.4833 9.35 23.55C7.45 22.6167 5.68333 21.6167 4.05 20.55C2.41667 19.45 1.36667 18.3833 0.9 17.35C0.466667 16.3167 0.25 14.9833 0.25 13.35C0.25 11.6833 0.616667 10.2333 1.35 9C2.01667 8.03333 3.43333 6.7 5.6 5C7.76667 3.26667 9.36667 2.4 10.4 2.4C12.2333 2.4 14.3333 3.36667 16.7 5.3C19.0667 7.2 20.5667 9.3 21.2 11.6L15.65 15.45C15.1167 13.8833 14.2667 12.45 13.1 11.15C11.9333 9.81667 11.1 9.15 10.6 9.15C10.1333 9.15 9.61667 9.3 9.05 9.6C8.48333 9.9 8.01667 10.2833 7.65 10.75C7.31667 11.1833 7.15 11.95 7.15 13.05C7.15 14.1167 7.48333 14.8333 8.15 15.2C8.68333 15.6667 9.9 16.4 11.8 17.4C16.6667 20.0667 19.5333 22.2333 20.4 23.9ZM24.1934 11.05H30.7934V28.35C30.7934 30.05 30.9934 31.3667 31.3934 32.3C31.7934 33.2333 32.4267 34.05 33.2934 34.75L27.7934 38.6C25.3934 36.7 24.1934 34 24.1934 30.5V11.05ZM27.5934 0.599999C27.96 0.599999 28.7767 1.15 30.0434 2.25C31.31 3.31667 31.9434 4.05 31.9434 4.45C31.9434 4.81667 31.2934 5.55 29.9934 6.65C28.7267 7.75 27.91 8.3 27.5434 8.3C27.21 8.3 26.41 7.76666 25.1434 6.7C23.8767 5.6 23.2434 4.86667 23.2434 4.5C23.2434 4.1 23.8767 3.35 25.1434 2.25C26.4434 1.15 27.26 0.599999 27.5934 0.599999ZM35.3273 17.05C35.594 16.2167 36.6273 14.9167 38.4273 13.15C40.2607 11.35 41.6107 10.45 42.4773 10.45C43.344 10.45 44.8273 11.35 46.9273 13.15V10.7C46.9273 9 46.7273 7.7 46.3273 6.8C45.9273 5.9 45.294 5.08333 44.4273 4.35L49.9273 0.499997C52.3273 2.4 53.5273 5.08333 53.5273 8.55V38H48.4273L47.8273 35.05C45.394 37.4167 43.5773 38.6 42.3773 38.6C41.5773 38.6 40.2607 37.7167 38.4273 35.95C36.6273 34.15 35.594 32.8333 35.3273 32C34.9607 31.1667 34.7773 28.6833 34.7773 24.55C34.7773 20.3833 34.9607 17.8833 35.3273 17.05ZM46.5773 18.7C46.344 18.2667 45.8607 17.8333 45.1273 17.4C44.4273 16.9333 43.894 16.7 43.5273 16.7C43.1607 16.7 42.7607 16.9167 42.3273 17.35C41.9273 17.7833 41.6273 18.2333 41.4273 18.7C41.2273 19.1667 41.1273 21.1167 41.1273 24.55C41.1273 27.95 41.2273 29.8833 41.4273 30.35C41.6273 30.7833 41.9273 31.2333 42.3273 31.7C42.7607 32.1333 43.144 32.35 43.4773 32.35C43.844 32.35 44.3773 32.1333 45.0773 31.7C45.8107 31.2333 46.294 30.8333 46.5273 30.5C46.7273 30.0333 46.8607 28.6833 46.9273 26.45V24.6C46.9273 21.0667 46.8107 19.1 46.5773 18.7ZM75.2059 24.45V26.25H63.1059C63.1059 28.25 63.3559 29.8333 63.8559 31C64.0225 31.4 64.3225 31.8167 64.7559 32.25C65.1892 32.65 65.6392 32.85 66.1059 32.85C66.5725 32.85 67.1559 32.45 67.8559 31.65C68.5559 30.85 69.1059 29.8833 69.5059 28.75L74.6559 32.4C73.7559 34.0667 72.3725 35.5167 70.5059 36.75C68.6725 37.9833 67.1892 38.6 66.0559 38.6C64.9225 38.6 63.2725 37.7167 61.1059 35.95C58.9725 34.1833 57.6725 32.8167 57.2059 31.85C56.7392 30.85 56.5059 28.4167 56.5059 24.55C56.5059 20.65 56.7392 18.2167 57.2059 17.25C57.6725 16.25 58.9725 14.8667 61.1059 13.1C63.2725 11.3333 64.8559 10.45 65.8559 10.45C66.8559 10.45 68.4225 11.3333 70.5559 13.1C72.7225 14.8667 74.0392 16.25 74.5059 17.25C74.9725 18.2167 75.2059 20.6167 75.2059 24.45ZM68.2559 18.2C68.0225 17.7333 67.6392 17.2833 67.1059 16.85C66.6059 16.4167 66.1225 16.2 65.6559 16.2C65.2225 16.2 64.7225 16.65 64.1559 17.55C63.5892 18.4167 63.2392 19.7333 63.1059 21.5H68.8059C68.7059 19.7333 68.5225 18.6333 68.2559 18.2ZM90.9727 24.95V17.55C90.9727 14.05 91.156 11.8667 91.5227 11C92.0893 9.63333 93.556 7.86667 95.9227 5.7C98.3227 3.5 100.123 2.4 101.323 2.4C102.523 2.4 104.306 3.5 106.673 5.7C109.073 7.86667 110.556 9.63333 111.123 11C111.489 11.8667 111.673 14.05 111.673 17.55V23.45C111.673 26.95 111.506 29.0833 111.173 29.85C110.873 30.6167 110.073 31.6667 108.773 33C107.506 34.3 106.173 35.2833 104.773 35.95C106.273 37.05 107.223 37.6 107.623 37.6C108.423 37.6 109.239 37.1333 110.073 36.2L114.723 39.45C113.456 40.7833 112.139 41.95 110.773 42.95C109.439 43.95 108.389 44.45 107.623 44.45C106.423 44.45 104.623 43.65 102.223 42.05C99.8227 40.4833 97.456 38.5167 95.1227 36.15C95.9227 35.5833 96.8893 34.9167 98.0227 34.15C99.156 33.35 99.956 32.7833 100.423 32.45C100.923 32.0833 101.473 31.65 102.073 31.15C103.073 30.3167 103.839 29.4333 104.373 28.5C104.639 27.9667 104.773 26.2833 104.773 23.45V17.55C104.773 14.8167 104.639 13.15 104.373 12.55C104.106 11.9167 103.639 11.2667 102.973 10.6C102.339 9.9 101.789 9.55 101.323 9.55C100.856 9.55 100.289 9.9 99.6227 10.6C98.9893 11.2667 98.5393 11.9167 98.2727 12.55C98.006 13.15 97.8727 14.8167 97.8727 17.55V24.95C97.8727 27.45 97.9727 29.1667 98.1727 30.1L92.9727 33.7C92.306 32.8333 91.806 32.0333 91.4727 31.3C91.1393 30.5667 90.9727 28.45 90.9727 24.95ZM114.916 11.05H121.516V29.65C121.516 30.2167 121.783 30.8167 122.316 31.45C122.849 32.05 123.349 32.35 123.816 32.35C124.283 32.35 125.249 31.6667 126.716 30.3V11.05H133.316V38H128.216L127.616 35.05C125.116 37.4167 123.366 38.6 122.366 38.6C121.366 38.6 119.866 37.6833 117.866 35.85C115.899 33.9833 114.916 32.15 114.916 30.35V11.05ZM156.261 24.45V26.25H144.161C144.161 28.25 144.411 29.8333 144.911 31C145.077 31.4 145.377 31.8167 145.811 32.25C146.244 32.65 146.694 32.85 147.161 32.85C147.627 32.85 148.211 32.45 148.911 31.65C149.611 30.85 150.161 29.8833 150.561 28.75L155.711 32.4C154.811 34.0667 153.427 35.5167 151.561 36.75C149.727 37.9833 148.244 38.6 147.111 38.6C145.977 38.6 144.327 37.7167 142.161 35.95C140.027 34.1833 138.727 32.8167 138.261 31.85C137.794 30.85 137.561 28.4167 137.561 24.55C137.561 20.65 137.794 18.2167 138.261 17.25C138.727 16.25 140.027 14.8667 142.161 13.1C144.327 11.3333 145.911 10.45 146.911 10.45C147.911 10.45 149.477 11.3333 151.611 13.1C153.777 14.8667 155.094 16.25 155.561 17.25C156.027 18.2167 156.261 20.6167 156.261 24.45ZM149.311 18.2C149.077 17.7333 148.694 17.2833 148.161 16.85C147.661 16.4167 147.177 16.2 146.711 16.2C146.277 16.2 145.777 16.65 145.211 17.55C144.644 18.4167 144.294 19.7333 144.161 21.5H149.861C149.761 19.7333 149.577 18.6333 149.311 18.2ZM177.627 29.9C177.627 30.9333 176.344 32.65 173.777 35.05C171.211 37.4167 169.294 38.6 168.027 38.6C166.794 38.6 165.244 37.9833 163.377 36.75C161.544 35.5167 160.177 34.0667 159.277 32.4L164.427 28.85C166.094 31.1833 167.311 32.35 168.077 32.35C168.644 32.35 169.344 32.0667 170.177 31.5C171.011 30.9333 171.427 30.4 171.427 29.9C171.427 29.7667 171.027 29.4833 170.227 29.05C169.427 28.5833 168.444 28.0167 167.277 27.35C166.144 26.65 165.011 25.8833 163.877 25.05C162.744 24.1833 161.777 23.1333 160.977 21.9C160.177 20.6667 159.777 19.4167 159.777 18.15C159.777 16.8833 160.911 15.2833 163.177 13.35C165.444 11.4167 167.177 10.45 168.377 10.45C169.611 10.45 171.144 11.0667 172.977 12.3C174.844 13.5333 176.227 14.9833 177.127 16.65L171.977 20.2C170.311 17.8667 169.094 16.7 168.327 16.7C167.927 16.7 167.427 16.9333 166.827 17.4C166.261 17.8333 165.977 18.2333 165.977 18.6C165.977 18.9667 166.577 19.5333 167.777 20.3C169.011 21.0667 170.344 21.8667 171.777 22.7C173.244 23.5 174.577 24.5667 175.777 25.9C177.011 27.2 177.627 28.5333 177.627 29.9ZM188.489 16.3V27.35C188.489 28.9167 189.022 30.35 190.089 31.65C191.155 32.95 192.622 33.9833 194.489 34.75L188.989 38.6C186.989 37.6667 185.305 36.3833 183.939 34.75C182.572 33.0833 181.889 31.3333 181.889 29.5V16.3H179.389V12.55L181.889 11.95C181.822 10.3167 181.622 9.03333 181.289 8.1C180.955 7.13333 180.322 6.2 179.389 5.3L184.889 1.45C187.289 3.35 188.489 6.05 188.489 9.55V11.05H194.089V16.3H188.489Z" fill="#333333"/>
</svg>
