<svg width="9" height="10" viewBox="0 0 9 10" fill="none" xmlns="http://www.w3.org/2000/svg">
<path d="M2.64062 0.345508C2.74609 0.13375 2.96289 0 3.19922 0H5.55078C5.78711 0 6.00391 0.13375 6.10937 0.345508L6.25 0.625H8.125C8.4707 0.625 8.75 0.904883 8.75 1.25C8.75 1.59512 8.4707 1.875 8.125 1.875H0.625C0.279883 1.875 0 1.59512 0 1.25C0 0.904883 0.279883 0.625 0.625 0.625H2.5L2.64062 0.345508ZM0.607422 2.5H8.125V8.75C8.125 9.43945 7.56445 10 6.875 10H1.85742C1.18457 10 0.607422 9.43945 0.607422 8.75V2.5ZM2.16992 4.0625V8.4375C2.16992 8.60938 2.32812 8.75 2.48242 8.75C2.67187 8.75 2.79492 8.60938 2.79492 8.4375V4.0625C2.79492 3.89062 2.67187 3.75 2.48242 3.75C2.32812 3.75 2.16992 3.89062 2.16992 4.0625ZM4.04492 4.0625V8.4375C4.04492 8.60938 4.20313 8.75 4.35742 8.75C4.54688 8.75 4.6875 8.60938 4.6875 8.4375V4.0625C4.6875 3.89062 4.54688 3.75 4.35742 3.75C4.20313 3.75 4.04492 3.89062 4.04492 4.0625ZM5.9375 4.0625V8.4375C5.9375 8.60938 6.07812 8.75 6.25 8.75C6.42188 8.75 6.5625 8.60938 6.5625 8.4375V4.0625C6.5625 3.89062 6.42188 3.75 6.25 3.75C6.07812 3.75 5.9375 3.89062 5.9375 4.0625Z" fill="#333333"/>
</svg>
