<svg width="95" height="85" viewBox="0 0 95 85" fill="none" xmlns="http://www.w3.org/2000/svg">
<path d="M40.8 43.8C41.5333 45 41.9 47.4 41.9 51C41.9 54.5333 41.1667 57.5333 39.7 60C38.3667 61.9333 35.5333 64.6333 31.2 68.1C26.8667 71.5 23.6667 73.2 21.6 73.2C17.9333 73.2 13.7333 71.3 9 67.5C4.26667 63.6333 1.26667 59.4 1.41561e-07 54.8L11.1 47.2C12.1667 50.3333 13.8667 53.2 16.2 55.8C18.5333 58.4 20.1667 59.7 21.1 59.7C22.1 59.7 23.1333 59.4 24.2 58.8C25.3333 58.1333 26.2 57.4667 26.8 56.8C27.6667 55.7333 28.1 54.0667 28.1 51.8C28.1 49.5333 27.5667 48.1333 26.5 47.6C25.1667 46.4667 22.5667 44.9667 18.7 43.1C14.9 41.2333 11.3667 39.2333 8.1 37.1C4.83333 34.9 2.73333 32.7667 1.8 30.7C0.933333 28.6333 0.5 25.9667 0.5 22.7C0.5 19.3667 1.23333 16.4667 2.7 14C4.03333 12.0667 6.86667 9.4 11.2 6C15.5333 2.53333 18.7333 0.799999 20.8 0.799999C24.4667 0.799999 28.6667 2.73333 33.4 6.6C38.1333 10.4 41.1333 14.6 42.4 19.2L31.3 26.9C30.2333 23.7667 28.5333 20.9 26.2 18.3C23.8667 15.6333 22.2 14.3 21.2 14.3C20.2667 14.3 19.2333 14.6 18.1 15.2C16.9667 15.8 16.0333 16.5667 15.3 17.5C14.6333 18.3667 14.3 19.9 14.3 22.1C14.3 24.2333 14.9667 25.6667 16.3 26.4C17.3667 27.3333 19.8 28.8 23.6 30.8C33.3333 36.1333 39.0667 40.4667 40.8 43.8ZM46.8867 45.9V31.1C46.8867 24.1 47.2534 19.7333 47.9867 18C49.1201 15.2667 52.0534 11.7333 56.7867 7.4C61.5867 3 65.1867 0.799999 67.5867 0.799999C69.9867 0.799999 73.5534 3 78.2867 7.4C83.0867 11.7333 86.0534 15.2667 87.1867 18C87.9201 19.7333 88.2867 24.1 88.2867 31.1V42.9C88.2867 49.9 87.9534 54.1667 87.2867 55.7C86.6867 57.2333 85.0867 59.3333 82.4867 62C79.9534 64.6 77.2867 66.5667 74.4867 67.9C77.4867 70.1 79.3867 71.2 80.1867 71.2C81.7867 71.2 83.4201 70.2667 85.0867 68.4L94.3867 74.9C91.8534 77.5667 89.2201 79.9 86.4867 81.9C83.8201 83.9 81.7201 84.9 80.1867 84.9C77.7867 84.9 74.1867 83.3 69.3867 80.1C64.5867 76.9667 59.8534 73.0333 55.1867 68.3C56.7867 67.1667 58.7201 65.8333 60.9867 64.3C63.2534 62.7 64.8534 61.5667 65.7867 60.9C66.7867 60.1667 67.8867 59.3 69.0867 58.3C71.0867 56.6333 72.6201 54.8667 73.6867 53C74.2201 51.9333 74.4867 48.5667 74.4867 42.9V31.1C74.4867 25.6333 74.2201 22.3 73.6867 21.1C73.1534 19.8333 72.2201 18.5333 70.8867 17.2C69.6201 15.8 68.5201 15.1 67.5867 15.1C66.6534 15.1 65.5201 15.8 64.1867 17.2C62.9201 18.5333 62.0201 19.8333 61.4867 21.1C60.9534 22.3 60.6867 25.6333 60.6867 31.1V45.9C60.6867 50.9 60.8867 54.3333 61.2867 56.2L50.8867 63.4C49.5534 61.6667 48.5534 60.0667 47.8867 58.6C47.2201 57.1333 46.8867 52.9 46.8867 45.9Z" fill="black"/>
</svg>
