<svg width="182" height="162" viewBox="0 0 182 162" fill="none" xmlns="http://www.w3.org/2000/svg">
<path d="M79.1135 82.856C80.5215 85.16 81.2255 89.768 81.2255 96.68C81.2255 103.464 79.8175 109.224 77.0015 113.96C74.4415 117.672 69.0015 122.856 60.6815 129.512C52.3615 136.04 46.2175 139.304 42.2495 139.304C35.2095 139.304 27.1455 135.656 18.0575 128.36C8.9695 120.936 3.2095 112.808 0.7775 103.976L22.0895 89.384C24.1375 95.4 27.4015 100.904 31.8815 105.896C36.3615 110.888 39.4975 113.384 41.2895 113.384C43.2095 113.384 45.1935 112.808 47.2415 111.656C49.4175 110.376 51.0815 109.096 52.2335 107.816C53.8975 105.768 54.7295 102.568 54.7295 98.216C54.7295 93.864 53.7055 91.176 51.6575 90.152C49.0975 87.976 44.1055 85.096 36.6815 81.512C29.3855 77.928 22.6015 74.088 16.3295 69.992C10.0575 65.768 6.0255 61.672 4.2335 57.704C2.5695 53.736 1.7375 48.616 1.7375 42.344C1.7375 35.944 3.1455 30.376 5.9615 25.64C8.5215 21.928 13.9615 16.808 22.2815 10.28C30.6015 3.624 36.7455 0.295998 40.7135 0.295998C47.7535 0.295998 55.8175 4.008 64.9055 11.432C73.9935 18.728 79.7535 26.792 82.1855 35.624L60.8735 50.408C58.8255 44.392 55.5615 38.888 51.0815 33.896C46.6015 28.776 43.4015 26.216 41.4815 26.216C39.6895 26.216 37.7055 26.792 35.5295 27.944C33.3535 29.096 31.5615 30.568 30.1535 32.36C28.8735 34.024 28.2335 36.968 28.2335 41.192C28.2335 45.288 29.5135 48.04 32.0735 49.448C34.1215 51.24 38.7935 54.056 46.0895 57.896C64.7775 68.136 75.7855 76.456 79.1135 82.856ZM90.8 86.888V58.472C90.8 45.032 91.504 36.648 92.912 33.32C95.088 28.072 100.72 21.288 109.808 12.968C119.024 4.52 125.936 0.295998 130.544 0.295998C135.152 0.295998 142 4.52 151.088 12.968C160.304 21.288 166 28.072 168.176 33.32C169.584 36.648 170.288 45.032 170.288 58.472V81.128C170.288 94.568 169.648 102.76 168.368 105.704C167.216 108.648 164.144 112.68 159.152 117.8C154.288 122.792 149.168 126.568 143.792 129.128C149.552 133.352 153.2 135.464 154.736 135.464C157.808 135.464 160.944 133.672 164.144 130.088L182 142.568C177.136 147.688 172.08 152.168 166.832 156.008C161.712 159.848 157.68 161.768 154.736 161.768C150.128 161.768 143.216 158.696 134 152.552C124.784 146.536 115.696 138.984 106.736 129.896C109.808 127.72 113.52 125.16 117.872 122.216C122.224 119.144 125.296 116.968 127.088 115.688C129.008 114.28 131.12 112.616 133.424 110.696C137.264 107.496 140.208 104.104 142.256 100.52C143.28 98.472 143.792 92.008 143.792 81.128V58.472C143.792 47.976 143.28 41.576 142.256 39.272C141.232 36.84 139.44 34.344 136.88 31.784C134.448 29.096 132.336 27.752 130.544 27.752C128.752 27.752 126.576 29.096 124.016 31.784C121.584 34.344 119.856 36.84 118.832 39.272C117.808 41.576 117.296 47.976 117.296 58.472V86.888C117.296 96.488 117.68 103.08 118.448 106.664L98.48 120.488C95.92 117.16 94 114.088 92.72 111.272C91.44 108.456 90.8 100.328 90.8 86.888Z" fill="#333333"/>
</svg>
