<svg width="484" height="432" viewBox="0 0 484 432" fill="none" xmlns="http://www.w3.org/2000/svg">
<path d="M209.636 220.616C213.391 226.76 215.268 239.048 215.268 257.48C215.268 275.571 211.513 290.931 204.004 303.56C197.177 313.459 182.671 327.283 160.484 345.032C138.297 362.44 121.913 371.144 111.332 371.144C92.5587 371.144 71.0547 361.416 46.82 341.96C22.5853 322.163 7.22533 300.488 0.740001 276.936L57.572 238.024C63.0333 254.067 71.7373 268.744 83.684 282.056C95.6307 295.368 103.993 302.024 108.772 302.024C113.892 302.024 119.183 300.488 124.644 297.416C130.447 294.003 134.884 290.589 137.956 287.176C142.393 281.715 144.612 273.181 144.612 261.576C144.612 249.971 141.881 242.803 136.42 240.072C129.593 234.269 116.281 226.589 96.484 217.032C77.028 207.475 58.9373 197.235 42.212 186.312C25.4867 175.048 14.7347 164.125 9.956 153.544C5.51867 142.963 3.3 129.309 3.3 112.584C3.3 95.5173 7.05467 80.6693 14.564 68.04C21.3907 58.1413 35.8973 44.488 58.084 27.08C80.2707 9.33066 96.6547 0.455994 107.236 0.455994C126.009 0.455994 147.513 10.3547 171.748 30.152C195.983 49.608 211.343 71.112 217.828 94.664L160.996 134.088C155.535 118.045 146.831 103.368 134.884 90.056C122.937 76.4027 114.404 69.576 109.284 69.576C104.505 69.576 99.2147 71.112 93.412 74.184C87.6093 77.256 82.8307 81.1813 79.076 85.96C75.6627 90.3973 73.956 98.248 73.956 109.512C73.956 120.435 77.3693 127.773 84.196 131.528C89.6573 136.307 102.116 143.816 121.572 154.056C171.407 181.363 200.761 203.549 209.636 220.616ZM240.8 231.368V155.592C240.8 119.752 242.677 97.3947 246.432 88.52C252.235 74.5253 267.253 56.4347 291.488 34.248C316.064 11.72 334.496 0.455994 346.784 0.455994C359.072 0.455994 377.333 11.72 401.568 34.248C426.144 56.4347 441.333 74.5253 447.136 88.52C450.891 97.3947 452.768 119.752 452.768 155.592V216.008C452.768 251.848 451.061 273.693 447.648 281.544C444.576 289.395 436.384 300.147 423.072 313.8C410.101 327.112 396.448 337.181 382.112 344.008C397.472 355.272 407.2 360.904 411.296 360.904C419.488 360.904 427.851 356.125 436.384 346.568L484 379.848C471.029 393.501 457.547 405.448 443.552 415.688C429.899 425.928 419.147 431.048 411.296 431.048C399.008 431.048 380.576 422.856 356 406.472C331.424 390.429 307.189 370.291 283.296 346.056C291.488 340.253 301.387 333.427 312.992 325.576C324.597 317.384 332.789 311.581 337.568 308.168C342.688 304.413 348.32 299.976 354.464 294.856C364.704 286.323 372.555 277.277 378.016 267.72C380.747 262.259 382.112 245.021 382.112 216.008V155.592C382.112 127.603 380.747 110.536 378.016 104.392C375.285 97.9067 370.507 91.2507 363.68 84.424C357.195 77.256 351.563 73.672 346.784 73.672C342.005 73.672 336.203 77.256 329.376 84.424C322.891 91.2507 318.283 97.9067 315.552 104.392C312.821 110.536 311.456 127.603 311.456 155.592V231.368C311.456 256.968 312.48 274.547 314.528 284.104L261.28 320.968C254.453 312.093 249.333 303.901 245.92 296.392C242.507 288.883 240.8 267.208 240.8 231.368Z" fill="#333333"/>
</svg>
